<svg xmlns="http://www.w3.org/2000/svg" width="41" height="41" viewBox="0 0 41 41"><g><g><path fill="#fff" d="M14.421 28.014l-1.434-1.434L33.61 5.958l-3.42-3.417a1.051 1.051 0 0 0-.746-.308c-.277 0-.54.104-.745.308L6.955 24.285 5.52 22.85 27.262 1.109a3.082 3.082 0 0 1 2.182-.903c.786 0 1.58.3 2.18.902l8.27 8.266a3.088 3.088 0 0 1 0 4.36L18.148 35.48l-1.434-1.435L38.46 12.3h-.002a1.04 1.04 0 0 0 .31-.747c-.002-.275-.104-.543-.308-.745l-3.415-3.416zm-1.841 8.734c.414.418.74.915.752 1.574.012.514-.284 1.043-.676 1.315-.389.284-.827.402-1.293.443l-8.222.705c-.081.005-.16.008-.24.008h-.007a2.696 2.696 0 0 1-1.912-.775 2.675 2.675 0 0 1-.777-1.92c0-.09.003-.182.012-.267l.001.001.703-8.192c.041-.467.157-.904.442-1.294.27-.392.801-.69 1.316-.677.658.011 1.154.34 1.574.752zm-1.542 1.327l-8.11-8.113-.69 8.052h-.012l.007.084c.03.448.22.638.668.669.033 0 .065-.004.086-.004z"/></g></g></svg>