<svg xmlns="http://www.w3.org/2000/svg" width="21" height="42" viewBox="0 0 21 42"><g><g><path fill="#fa694e" d="M21 23v15c-.004 2.074-1.922 3.998-4 4H4c-2.076-.002-3.998-1.926-4-4V23l.223.37c.34-5.493 4.368-9.955 9.538-10.36v-.34c.043-.244-.358-.886-.598-.958L4.329 9.34A3.082 3.082 0 0 1 2.685 6.7V4.856A2.188 2.188 0 0 1 4.87 2.671h7.623A2.513 2.513 0 0 1 14.931.748l1.935-.003a2.524 2.524 0 0 1 2.518 2.52V5.2a2.52 2.52 0 0 1-2.518 2.518h-1.935A2.521 2.521 0 0 1 12.413 5.2v-.654H4.87a.32.32 0 0 0-.31.31V6.7c-.045.244.355.889.595.957l4.836 2.373a3.105 3.105 0 0 1 1.645 2.64v.373c4.976.594 8.812 4.973 9.14 10.328zM14.288 5.2a.657.657 0 0 0 .643.643l1.935-.001c.346 0 .64-.296.643-.642V3.265a.654.654 0 0 0-.643-.642h-1.935a.654.654 0 0 0-.643.642zM9.597 20.932a.65.65 0 0 0-.641.641v1.937c0 .345.295.64.64.641h1.938a.653.653 0 0 0 .64-.641v-1.937a.65.65 0 0 0-.64-.641zm9.318 4.317v-.94c.004-.152.012-.206.01-.206-.004-4.739-3.221-8.547-7.29-9.16v4.122a2.515 2.515 0 0 1 2.415 2.508v1.937a2.521 2.521 0 0 1-2.516 2.516l-1.937.001A2.52 2.52 0 0 1 7.08 23.51v-1.937a2.516 2.516 0 0 1 2.516-2.517h.164v-4.17c-4.254.42-7.68 4.326-7.686 9.217-.002 0 .006.054.01.205v.94L2 25v13c.004 1.031.969 1.997 2 2h13c1.031-.003 1.996-.969 2-2V25z"/></g></g></svg>