<svg xmlns="http://www.w3.org/2000/svg" width="38" height="39" viewBox="0 0 38 39"><g><g><path fill="#fa694e" d="M24.42 32.026L38 32v2l-13.486-.003A5.717 5.717 0 0 1 18.846 39a5.72 5.72 0 0 1-5.674-5.003L0 34v-2l13.266.026c.49-2.189 2.529-3.579 4.734-4.026v-3h2v3c2.352.343 3.908 1.737 4.42 4.026zM23 33c-.004-2.068-1.934-2.995-4-3-2.072.005-3.996.932-4 3 .004 2.07 1.928 3.995 4 4 2.066-.005 3.996-1.93 4-4zM38 3v18c-.004 1.726-1.273 2.996-3 3H3c-1.727-.004-2.996-1.274-3-3V3C.004 1.271 1.46.004 3.187 0h31.625C36.54.003 37.996 1.27 38 3zm-2.031 17.73l.004-17.6a1.173 1.173 0 0 0-1.16-1.157L3.186 1.97C2.557 1.973 2 2.37 2 3v18c.004.629.37.997 1 1h32c.63-.003.969-.64.973-1.27z"/></g></g></svg>