<svg xmlns="http://www.w3.org/2000/svg" width="88" height="88" viewBox="0 0 88 88"><g><g><path fill="#fff" d="M66.473 81.65c0-.065.006-.129.01-.192v-29.64l-12.575 6.32a5.07 5.07 0 0 1-.514.258l-.015.007a4.96 4.96 0 0 1-1.938.39c-.69 0-1.344-.14-1.94-.392l-.002.002-.104-.052a5.06 5.06 0 0 1-.399-.2l-12.59-6.33v19.705c0 .05.005.092.005.143a4.993 4.993 0 0 1-4.99 4.992 4.993 4.993 0 0 1-4.992-4.992c0-.06.008-.117.008-.178h-.008V43.668l.011-.01a4.989 4.989 0 0 1 4.982-4.775c1.03 0 1.987.316 2.784.853l14.491 8.309h.003c.79.52 1.73.821 2.741.821a4.972 4.972 0 0 0 2.768-.837l14.452-8.285a4.972 4.972 0 0 1 2.803-.861H71.473a4.99 4.99 0 0 1 4.983 4.822v.03c0 .046.008.093.008.142 0 .045-.007.093-.007.139v29.8c7.207-7.777 11.618-18.183 11.618-29.623 0-24.08-19.52-43.6-43.6-43.6-24.08 0-43.601 19.52-43.601 43.6 0 24.08 19.52 43.602 43.6 43.602a43.387 43.387 0 0 0 22.016-5.97c-.002-.06-.017-.116-.017-.177z"/></g></g></svg>