<svg xmlns="http://www.w3.org/2000/svg" width="13" height="10" viewBox="0 0 13 10"><g><g><path fill="#333" d="M12.543 1.203a5.223 5.223 0 0 1-1.457.402A2.57 2.57 0 0 0 12.202.201a5.126 5.126 0 0 1-1.611.615 2.525 2.525 0 0 0-1.853-.8 2.535 2.535 0 0 0-2.47 3.113A7.19 7.19 0 0 1 1.043.48a2.534 2.534 0 0 0 .782 3.385A2.521 2.521 0 0 1 .677 3.55v.031A2.54 2.54 0 0 0 2.71 6.066a2.513 2.513 0 0 1-.669.088c-.163 0-.318-.015-.476-.04a2.532 2.532 0 0 0 2.37 1.757 5.089 5.089 0 0 1-3.757 1.05 7.205 7.205 0 0 0 3.89 1.14c4.665 0 7.214-3.864 7.214-7.215 0-.11 0-.22-.006-.328a5.194 5.194 0 0 0 1.267-1.315z"/></g></g></svg>